<svg width="19" height="20" viewBox="0 0 19 20" fill="none" xmlns="http://www.w3.org/2000/svg">
<path d="M18.0661 9.07198V12.6872C18.0661 12.8034 18.0525 12.9192 18.0254 13.0323L16.7985 18.1538C16.6355 18.8343 16.0173 19.3152 15.3056 19.3152H7.33082C7.08893 19.3152 6.85046 19.259 6.6349 19.1511C6.41934 19.0433 6.2328 18.887 6.09051 18.6948L1.18307 12.0669C0.684912 11.3941 0.836357 10.452 1.52131 9.96265C2.20633 9.47331 3.16549 9.6221 3.66365 10.2949L4.87704 11.9337V1.54023C4.87704 0.708306 5.56364 0.0338745 6.41066 0.0338745C7.25767 0.0338745 7.94427 0.708306 7.94427 1.54023V9.07198H8.25099V7.56563C8.25099 6.73371 8.93759 6.05928 9.7846 6.05928C10.6316 6.05928 11.3182 6.73371 11.3182 7.56563V9.07198H11.6249V8.16817C11.6249 7.33625 12.3115 6.66182 13.1586 6.66182C14.0056 6.66182 14.6922 7.33625 14.6922 8.16817V9.07198H14.9989C14.9989 8.24006 15.6855 7.56563 16.5325 7.56563C17.3795 7.56563 18.0661 8.24006 18.0661 9.07198ZM8.25099 12.0847H7.94427V15.6999H8.25099V12.0847ZM11.6249 12.0847H11.3182V15.6999H11.6249V12.0847ZM14.9989 12.0847H14.6922V15.6999H14.9989V12.0847Z" fill="#4B5563"/>
</svg>
