<svg width="40" height="44" viewBox="0 0 40 44" fill="none" xmlns="http://www.w3.org/2000/svg">
<g filter="url(#filter0_d_305_261)">
<path d="M36 16.875V23.625C36 23.8418 35.9746 24.0581 35.9241 24.2692L33.6383 33.8317C33.3347 35.1021 32.183 36 30.8571 36H16C15.5493 36 15.1051 35.895 14.7035 35.6937C14.3019 35.4924 13.9544 35.2005 13.6893 34.8417L4.54665 22.4667C3.61857 21.2105 3.90072 19.4515 5.17679 18.538C6.453 17.6243 8.23993 17.9021 9.168 19.1583L11.4286 22.2182V2.8125C11.4286 1.25923 12.7077 0 14.2857 0C15.8637 0 17.1429 1.25923 17.1429 2.8125V16.875H17.7143V14.0625C17.7143 12.5092 18.9934 11.25 20.5714 11.25C22.1494 11.25 23.4286 12.5092 23.4286 14.0625V16.875H24V15.1875C24 13.6342 25.2791 12.375 26.8571 12.375C28.4351 12.375 29.7143 13.6342 29.7143 15.1875V16.875H30.2857C30.2857 15.3217 31.5648 14.0625 33.1428 14.0625C34.7208 14.0625 36 15.3217 36 16.875ZM17.7143 22.5H17.1429V29.25H17.7143V22.5ZM24 22.5H23.4286V29.25H24V22.5ZM30.2857 22.5H29.7143V29.25H30.2857V22.5Z" fill="#9CA3AF"/>
</g>
<defs>
<filter id="filter0_d_305_261" x="0" y="0" width="40" height="44" filterUnits="userSpaceOnUse" color-interpolation-filters="sRGB">
<feFlood flood-opacity="0" result="BackgroundImageFix"/>
<feColorMatrix in="SourceAlpha" type="matrix" values="0 0 0 0 0 0 0 0 0 0 0 0 0 0 0 0 0 0 127 0" result="hardAlpha"/>
<feOffset dy="4"/>
<feGaussianBlur stdDeviation="2"/>
<feComposite in2="hardAlpha" operator="out"/>
<feColorMatrix type="matrix" values="0 0 0 0 0.215686 0 0 0 0 0.254902 0 0 0 0 0.317647 0 0 0 0.25 0"/>
<feBlend mode="normal" in2="BackgroundImageFix" result="effect1_dropShadow_305_261"/>
<feBlend mode="normal" in="SourceGraphic" in2="effect1_dropShadow_305_261" result="shape"/>
</filter>
</defs>
</svg>
